<?xml version="1.0" standalone="no"?>
<!DOCTYPE svg PUBLIC "-//W3C//DTD SVG 20010904//EN"
 "http://www.w3.org/TR/2001/REC-SVG-20010904/DTD/svg10.dtd">
<svg version="1.0" xmlns="http://www.w3.org/2000/svg"
 width="512.000000pt" height="512.000000pt" viewBox="0 0 512.000000 512.000000"
 preserveAspectRatio="xMidYMid meet">
<metadata>
Created by potrace 1.11, written by Peter Selinger 2001-2013
</metadata>
<g transform="translate(0.000000,512.000000) scale(0.100000,-0.100000)"
fill="#000000" stroke="none">
<path d="M3232 3719 c-349 -41 -754 -347 -1048 -794 -371 -563 -491 -1217
-297 -1614 47 -97 161 -215 245 -254 76 -36 169 -57 253 -57 98 1 145 13 178
50 26 29 27 34 27 150 l0 120 -47 -34 c-152 -107 -255 -112 -304 -13 -30 60
-77 106 -121 118 -27 7 -38 15 -38 29 0 26 60 60 106 60 42 0 65 -12 112 -60
58 -57 122 -52 214 18 67 51 80 70 97 147 7 28 20 67 31 88 16 34 16 38 2 31
-122 -51 -250 -67 -315 -40 -45 18 -91 74 -117 143 -18 45 -24 86 -27 183 -6
143 6 211 63 351 34 86 34 89 23 156 -15 91 8 238 42 266 39 32 126 50 205 44
l72 -7 64 53 c128 105 279 191 408 233 30 10 62 27 69 38 81 113 236 266 269
266 20 0 35 -101 29 -209 l-5 -106 33 -37 c48 -52 65 -120 65 -254 0 -311
-122 -562 -372 -768 -97 -80 -97 -80 -78 -101 38 -41 44 -75 49 -305 7 -268 6
-265 107 -168 244 233 497 662 599 1015 62 214 88 430 74 614 -34 445 -289
692 -667 648z"/>
</g>
</svg>
